<svg xmlns="http://www.w3.org/2000/svg" width="24" height="24" viewBox="0 0 24 24">
  <defs>
    <style>
      .a {
        fill: none;
        stroke: #a7a8aa;
        stroke-linejoin: round;
        stroke-width: 1.5px;
      }
    </style>
  </defs>
  <title>Osram_Glyphs_v1</title>
  <circle class="a" cx="12" cy="12" r="3"/>
  <path class="a" d="M19,12.8l3.18-2L20.89,7l-3.74.26a7.1,7.1,0,0,0-2.24-1.63L14,2H10L9.09,5.64A7.1,7.1,0,0,0,6.85,7.27L3.11,7l-1.24,3.8,3.18,2a7,7,0,0,0,.86,2.64L4.5,18.91l3.24,2.36,2.87-2.41a7,7,0,0,0,2.78,0l2.87,2.41,3.24-2.36-1.41-3.47A7,7,0,0,0,19,12.8Z"/>
</svg>
