<svg xmlns="http://www.w3.org/2000/svg" width="24" height="24" viewBox="0 0 24 24">
  <defs>
    <style>
      .a {
        fill: none;
        stroke: #fff;
        stroke-linejoin: round;
        stroke-width: 1.5px;
      }

      .b {
        fill: #fff;
      }
    </style>
  </defs>
  <title>Osram_Glyphs_v1</title>
  <circle class="a" cx="12" cy="12" r="10"/>
  <path class="b" d="M11.17,14a3.28,3.28,0,0,1,.06-1.2,2.94,2.94,0,0,1,.92-1.48l.57-.51a2.92,2.92,0,0,0,.44-.51,1.11,1.11,0,0,0,.18-.63,1.05,1.05,0,0,0-.27-.76,1.24,1.24,0,0,0-.94-.29,2.49,2.49,0,0,0-.46,0,3,3,0,0,0-.49.14,2.76,2.76,0,0,0-.47.2c-.15.08-.28.16-.4.24L9.63,7.89a5.06,5.06,0,0,1,1.19-.58,5.14,5.14,0,0,1,1.62-.23,2.94,2.94,0,0,1,2,.62,2.07,2.07,0,0,1,.72,1.66A3,3,0,0,1,15,10.51a2.74,2.74,0,0,1-.45.77,3.53,3.53,0,0,1-.6.56,6,6,0,0,0-.59.53,2.52,2.52,0,0,0-.47.64,2.15,2.15,0,0,0-.19.94Zm-.28,1.93a1,1,0,0,1,.3-.76,1.15,1.15,0,0,1,.79-.28,1.18,1.18,0,0,1,.82.28,1,1,0,0,1,.29.76,1,1,0,0,1-.29.76,1.13,1.13,0,0,1-.82.28,1.11,1.11,0,0,1-.79-.28A1,1,0,0,1,10.89,15.88Z"/>
</svg>
