<svg xmlns="http://www.w3.org/2000/svg" width="260" height="15.53" viewBox="0 0 260 15.53">
  <defs>
    <style>
      .a {
        fill: #fff;
      }
    </style>
  </defs>
  <title>lightelligenceDocs_logo</title>
  <g>
    <g>
      <g>
        <path class="a" d="M2.88,2.15V12.82H9.26v2.41H0V2.15Z"/>
        <path class="a" d="M17.41,2.15V15.23H14.53V2.15Z"/>
        <path class="a" d="M31.36,15.13a4.69,4.69,0,0,1-1.89.4,6.84,6.84,0,0,1-2.7-.52,5.85,5.85,0,0,1-2-1.44,6.28,6.28,0,0,1-1.26-2.16A7.69,7.69,0,0,1,23,8.75,8,8,0,0,1,23.48,6a6.55,6.55,0,0,1,1.26-2.2,5.77,5.77,0,0,1,2-1.46,6.51,6.51,0,0,1,2.7-.53,6.41,6.41,0,0,1,2,.3A5.57,5.57,0,0,1,33.13,3a4.88,4.88,0,0,1,1.25,1.45,5,5,0,0,1,.61,2H32.24a2.7,2.7,0,0,0-1-1.65,2.86,2.86,0,0,0-1.78-.55,3.35,3.35,0,0,0-1.65.37,3.14,3.14,0,0,0-1.1,1,4.44,4.44,0,0,0-.61,1.44,7.07,7.07,0,0,0-.19,1.67,6.55,6.55,0,0,0,.19,1.6,4.32,4.32,0,0,0,.61,1.4,3.11,3.11,0,0,0,1.1,1,3.35,3.35,0,0,0,1.65.38,3.1,3.1,0,0,0,2.21-.73,3.16,3.16,0,0,0,.91-2.1h-2.9V8.16h5.5v7.07H33.36l-.3-1.48A4.26,4.26,0,0,1,31.36,15.13Z"/>
        <path class="a" d="M44.06,2.15v5h5.3v-5h2.87V15.23H49.36V9.59h-5.3v5.64H41.18V2.15Z"/>
        <path class="a" d="M57.4,4.57V2.15H68.12V4.57H64.2V15.23H61.32V4.57Z"/>
        <path class="a" d="M83.08,2.15V4.57H76.17v2.8h6.34V9.61H76.17v3.21h7.06v2.41H73.29V2.15Z"/>
        <path class="a" d="M91.71,2.15V12.82h6.38v2.41H88.83V2.15Z"/>
        <path class="a" d="M106.24,2.15V12.82h6.38v2.41h-9.25V2.15Z"/>
        <path class="a" d="M120.78,2.15V15.23H117.9V2.15Z"/>
        <path class="a" d="M134.73,15.13a4.76,4.76,0,0,1-1.89.4,6.89,6.89,0,0,1-2.71-.52,5.81,5.81,0,0,1-2-1.44,6.46,6.46,0,0,1-1.27-2.16,7.94,7.94,0,0,1-.43-2.66A8.21,8.21,0,0,1,126.84,6a6.75,6.75,0,0,1,1.27-2.2,5.74,5.74,0,0,1,2-1.46,6.55,6.55,0,0,1,2.71-.53,6.41,6.41,0,0,1,1.95.3,5.41,5.41,0,0,1,1.7.89,4.77,4.77,0,0,1,1.86,3.43h-2.74a2.8,2.8,0,0,0-1-1.65,2.88,2.88,0,0,0-1.78-.55,3.35,3.35,0,0,0-1.65.37,3.14,3.14,0,0,0-1.1,1,4.46,4.46,0,0,0-.62,1.44,7.63,7.63,0,0,0-.19,1.67,7.08,7.08,0,0,0,.19,1.6,4.33,4.33,0,0,0,.62,1.4,3.11,3.11,0,0,0,1.1,1,3.35,3.35,0,0,0,1.65.38,3.1,3.1,0,0,0,2.21-.73,3.1,3.1,0,0,0,.9-2.1h-2.89V8.16h5.5v7.07h-1.84l-.29-1.48A4.26,4.26,0,0,1,134.73,15.13Z"/>
        <path class="a" d="M154.34,2.15V4.57h-6.91v2.8h6.34V9.61h-6.34v3.21h7v2.41h-9.93V2.15Z"/>
        <path class="a" d="M163,2.15l5.46,8.78h0V2.15h2.69V15.23h-2.87l-5.45-8.76h0v8.76h-2.7V2.15Z"/>
        <path class="a" d="M185.73,5.64a2.74,2.74,0,0,0-.64-.72,3.1,3.1,0,0,0-.87-.49,2.88,2.88,0,0,0-1-.17,3.35,3.35,0,0,0-1.65.37,3.14,3.14,0,0,0-1.1,1,4.44,4.44,0,0,0-.61,1.44,7.07,7.07,0,0,0-.19,1.67,6.55,6.55,0,0,0,.19,1.6,4.32,4.32,0,0,0,.61,1.4,3.11,3.11,0,0,0,1.1,1,3.35,3.35,0,0,0,1.65.38,2.64,2.64,0,0,0,2.06-.81,3.72,3.72,0,0,0,.91-2.13H189a7,7,0,0,1-.57,2.22,5.48,5.48,0,0,1-1.21,1.69,5.15,5.15,0,0,1-1.76,1.06,6.31,6.31,0,0,1-2.22.37,6.84,6.84,0,0,1-2.7-.52,5.85,5.85,0,0,1-2-1.44,6.28,6.28,0,0,1-1.26-2.16,7.94,7.94,0,0,1-.44-2.66A8.21,8.21,0,0,1,177.21,6a6.55,6.55,0,0,1,1.26-2.2,5.77,5.77,0,0,1,2-1.46,6.51,6.51,0,0,1,2.7-.53,6.61,6.61,0,0,1,2.05.31,5.56,5.56,0,0,1,1.72.91,4.7,4.7,0,0,1,1.25,1.47,5.38,5.38,0,0,1,.63,2h-2.79A2.43,2.43,0,0,0,185.73,5.64Z"/>
        <path class="a" d="M204.37,2.15V4.57h-6.91v2.8h6.34V9.61h-6.34v3.21h7.06v2.41h-9.94V2.15Z"/>
      </g>
      <path class="a" d="M214.31,5.33A3.1,3.1,0,0,1,209,3.1a3,3,0,0,1,1-2.26A3.05,3.05,0,0,1,212.13,0a3,3,0,0,1,2.2.91,3,3,0,0,1,.91,2.19A3,3,0,0,1,214.31,5.33Zm-4-4a2.48,2.48,0,0,0-.74,1.79,2.53,2.53,0,0,0,.75,1.84,2.48,2.48,0,0,0,1.81.75,2.43,2.43,0,0,0,1.81-.76,2.52,2.52,0,0,0,.75-1.83,2.45,2.45,0,0,0-.75-1.79,2.5,2.5,0,0,0-3.63,0Zm.46,3.52V1.39h1.67a1.65,1.65,0,0,1,.68.18.85.85,0,0,1,.46.82.74.74,0,0,1-.24.62,1.1,1.1,0,0,1-.6.23,1.19,1.19,0,0,1,.49.2,1,1,0,0,1,.3.77v.31a.31.31,0,0,0,0,.1.3.3,0,0,0,0,.1l0,.1h-.86a2.37,2.37,0,0,1-.06-.48,1.57,1.57,0,0,0-.06-.42.41.41,0,0,0-.25-.25.8.8,0,0,0-.31-.05l-.2,0h-.19V4.83Zm1.65-2.76a1.51,1.51,0,0,0-.53-.07h-.22V3H212a.9.9,0,0,0,.5-.12.49.49,0,0,0,.17-.41A.39.39,0,0,0,212.42,2.07Z"/>
    </g>
    <g>
      <path class="a" d="M224,2.15a6.48,6.48,0,0,1,4.65,1.54,6.15,6.15,0,0,1,1.64,4.69A10.68,10.68,0,0,1,230,11.3a5.47,5.47,0,0,1-1.14,2.15,4.91,4.91,0,0,1-2,1.33,7.93,7.93,0,0,1-2.82.46h-4.49V2.15Zm.15,11.62c.19,0,.44,0,.73,0a3.89,3.89,0,0,0,.93-.22,4,4,0,0,0,1-.5,3.12,3.12,0,0,0,.87-.9,5.06,5.06,0,0,0,.64-1.42,7.67,7.67,0,0,0,.24-2.06,9,9,0,0,0-.22-2.1,4.15,4.15,0,0,0-.76-1.58,3.29,3.29,0,0,0-1.34-1,5.52,5.52,0,0,0-2-.33h-2.93V13.77Z"/>
      <path class="a" d="M232,8.55a4.25,4.25,0,0,1,2.32-2.63,5,5,0,0,1,2-.38,4.91,4.91,0,0,1,2,.38A4.15,4.15,0,0,1,239.71,7a4.47,4.47,0,0,1,.88,1.57,6.24,6.24,0,0,1,.29,2,6.11,6.11,0,0,1-.29,1.94,4.56,4.56,0,0,1-.88,1.57,4.1,4.1,0,0,1-1.44,1,4.91,4.91,0,0,1-2,.38,5,5,0,0,1-2-.38,4.1,4.1,0,0,1-1.44-1,4.26,4.26,0,0,1-.88-1.57,6.11,6.11,0,0,1-.3-1.94A6.24,6.24,0,0,1,232,8.55ZM233.56,12a3.21,3.21,0,0,0,.63,1.12,2.91,2.91,0,0,0,.95.68,2.85,2.85,0,0,0,2.29,0,2.87,2.87,0,0,0,.94-.68A3.21,3.21,0,0,0,239,12a4.56,4.56,0,0,0,.23-1.53A4.48,4.48,0,0,0,239,9a3.16,3.16,0,0,0-.63-1.13,2.66,2.66,0,0,0-.94-.7,2.85,2.85,0,0,0-2.29,0,2.7,2.7,0,0,0-.95.7A3.16,3.16,0,0,0,233.56,9a4.73,4.73,0,0,0-.23,1.53A4.82,4.82,0,0,0,233.56,12Z"/>
      <path class="a" d="M248.38,7.41a2.37,2.37,0,0,0-1.58-.5,2.88,2.88,0,0,0-1.41.32,2.48,2.48,0,0,0-.91.82A3.66,3.66,0,0,0,244,9.23a6.37,6.37,0,0,0-.15,1.39A5,5,0,0,0,244,11.9a3.28,3.28,0,0,0,.48,1.11,2.52,2.52,0,0,0,.87.78,3,3,0,0,0,3.07-.31,2.8,2.8,0,0,0,.79-1.71h1.6a4.36,4.36,0,0,1-1.31,2.71,4.11,4.11,0,0,1-2.87,1,5,5,0,0,1-1.92-.35,3.68,3.68,0,0,1-1.39-1,4.37,4.37,0,0,1-.84-1.53,6.33,6.33,0,0,1-.29-2,6.74,6.74,0,0,1,.28-2A4.48,4.48,0,0,1,243.31,7a4,4,0,0,1,1.4-1.09,4.68,4.68,0,0,1,2-.39,5.68,5.68,0,0,1,1.51.19,3.67,3.67,0,0,1,1.24.6,3.25,3.25,0,0,1,.89,1,3.69,3.69,0,0,1,.44,1.45h-1.61A2.36,2.36,0,0,0,248.38,7.41Z"/>
      <path class="a" d="M253.75,13.12a1.67,1.67,0,0,0,.58.57,2.55,2.55,0,0,0,.8.3,4.73,4.73,0,0,0,.93.09,7.09,7.09,0,0,0,.77-.05,2.88,2.88,0,0,0,.74-.21,1.32,1.32,0,0,0,.56-.43,1.12,1.12,0,0,0,.22-.72,1,1,0,0,0-.46-.92,4.16,4.16,0,0,0-1.14-.5c-.46-.13-1-.25-1.5-.35a7.4,7.4,0,0,1-1.49-.44,3.05,3.05,0,0,1-1.15-.8,2.08,2.08,0,0,1-.46-1.43A2.2,2.2,0,0,1,252.48,7a2.53,2.53,0,0,1,.82-.84,3.86,3.86,0,0,1,1.14-.47,4.93,4.93,0,0,1,1.25-.16,7.7,7.7,0,0,1,1.49.14,3.54,3.54,0,0,1,1.2.47,2.54,2.54,0,0,1,.83.92,3.5,3.5,0,0,1,.37,1.44H258a1.46,1.46,0,0,0-.24-.76,1.5,1.5,0,0,0-.51-.49,2.29,2.29,0,0,0-.69-.26,3.22,3.22,0,0,0-.76-.09,4.14,4.14,0,0,0-.7.06,2.67,2.67,0,0,0-.66.19,1.33,1.33,0,0,0-.47.37.93.93,0,0,0-.19.59.87.87,0,0,0,.29.67,2.14,2.14,0,0,0,.72.44,6.41,6.41,0,0,0,1,.3l1.1.24a11.53,11.53,0,0,1,1.15.32,3.79,3.79,0,0,1,1,.48,2.39,2.39,0,0,1,.69.76,2.24,2.24,0,0,1,.27,1.14,2.64,2.64,0,0,1-.36,1.43,2.79,2.79,0,0,1-.93.91,3.77,3.77,0,0,1-1.3.49,8,8,0,0,1-1.44.14,6.72,6.72,0,0,1-1.51-.17,3.76,3.76,0,0,1-1.26-.54,2.72,2.72,0,0,1-.88-1,3.52,3.52,0,0,1-.37-1.49h1.56A1.71,1.71,0,0,0,253.75,13.12Z"/>
    </g>
  </g>
</svg>
