<?xml version="1.0" encoding="utf-8"?>
<!-- Generator: Adobe Illustrator 23.0.1, SVG Export Plug-In . SVG Version: 6.00 Build 0)  -->
<svg version="1.1" id="OSRAM-Lightelligence-Logo_1_"
	 xmlns="http://www.w3.org/2000/svg" xmlns:xlink="http://www.w3.org/1999/xlink" x="0px" y="0px" viewBox="0 0 684.2 49.4"
	 style="enable-background:new 0 0 684.2 49.4;" xml:space="preserve">
<path id="OSRAM-Lightelligence-Logo" d="M9.1,6.8v33.9h20.3v7.7H0V6.8H9.1z M55.3,6.8v41.6h-9.1V6.8H55.3z M99.7,48.1
	c-2,0.8-4,1.3-6,1.3c-3.2,0-6.1-0.6-8.6-1.7c-2.5-1.1-4.7-2.6-6.4-4.6c-1.7-1.9-3.1-4.2-4-6.8c-0.9-2.6-1.4-5.4-1.4-8.5
	c0-3.1,0.5-6,1.4-8.7c0.9-2.7,2.3-5,4-7c1.7-2,3.9-3.5,6.4-4.7c2.5-1.1,5.4-1.7,8.6-1.7c2.1,0,4.2,0.3,6.2,1c2,0.6,3.8,1.6,5.4,2.8
	c1.6,1.2,2.9,2.8,4,4.6c1,1.8,1.7,3.9,1.9,6.3h-8.7c-0.5-2.3-1.6-4.1-3.1-5.2c-1.6-1.2-3.4-1.7-5.7-1.7c-2.1,0-3.8,0.4-5.2,1.2
	c-1.4,0.8-2.6,1.9-3.5,3.2c-0.9,1.3-1.5,2.9-2,4.6c-0.4,1.7-0.6,3.5-0.6,5.3c0,1.7,0.2,3.4,0.6,5.1c0.4,1.7,1.1,3.1,2,4.5
	c0.9,1.3,2.1,2.4,3.5,3.2c1.4,0.8,3.2,1.2,5.2,1.2c3,0,5.4-0.8,7-2.3c1.7-1.5,2.6-3.8,2.9-6.7h-9.2v-6.8h17.5v22.5H106l-0.9-4.7
	C103.5,45.8,101.7,47.3,99.7,48.1z M140.1,6.8v16h16.8v-16h9.1v41.6h-9.1V30.5h-16.8v17.9h-9.1V6.8H140.1z M182.5,14.5V6.8h34.1v7.7
	h-12.5v33.9h-9.1V14.5H182.5z M264.1,6.8v7.7h-22v8.9h20.2v7.1h-20.2v10.2h22.4v7.7H233V6.8H264.1z M291.5,6.8v33.9h20.3v7.7h-29.4
	V6.8H291.5z M337.7,6.8v33.9H358v7.7h-29.4V6.8H337.7z M383.9,6.8v41.6h-9.1V6.8H383.9z M428.3,48.1c-2,0.8-4,1.3-6,1.3
	c-3.2,0-6.1-0.6-8.6-1.7c-2.5-1.1-4.7-2.6-6.4-4.6c-1.7-1.9-3.1-4.2-4-6.8c-0.9-2.6-1.4-5.4-1.4-8.5c0-3.1,0.5-6,1.4-8.7
	c0.9-2.7,2.3-5,4-7c1.7-2,3.9-3.5,6.4-4.7c2.5-1.1,5.4-1.7,8.6-1.7c2.1,0,4.2,0.3,6.2,1c2,0.6,3.8,1.6,5.4,2.8
	c1.6,1.2,2.9,2.8,4,4.6c1,1.8,1.7,3.9,1.9,6.3h-8.7c-0.5-2.3-1.6-4.1-3.1-5.2s-3.4-1.7-5.7-1.7c-2.1,0-3.8,0.4-5.2,1.2
	c-1.4,0.8-2.6,1.9-3.5,3.2c-0.9,1.3-1.5,2.9-2,4.6c-0.4,1.7-0.6,3.5-0.6,5.3c0,1.7,0.2,3.4,0.6,5.1c0.4,1.7,1.1,3.1,2,4.5
	c0.9,1.3,2.1,2.4,3.5,3.2c1.4,0.8,3.2,1.2,5.2,1.2c3,0,5.4-0.8,7-2.3c1.7-1.5,2.6-3.8,2.9-6.7H423v-6.8h17.5v22.5h-5.8l-0.9-4.7
	C432.1,45.8,430.3,47.3,428.3,48.1z M490.6,6.8v7.7h-22v8.9h20.2v7.1h-20.2v10.2h22.4v7.7h-31.6V6.8H490.6z M518,6.8l17.4,27.9h0.1
	V6.8h8.6v41.6h-9.1l-17.3-27.8h-0.1v27.8h-8.6V6.8H518z M590.4,17.9c-0.5-0.9-1.2-1.6-2-2.3c-0.8-0.7-1.7-1.2-2.8-1.5
	c-1-0.4-2.1-0.6-3.2-0.6c-2.1,0-3.8,0.4-5.2,1.2c-1.4,0.8-2.6,1.9-3.5,3.2c-0.9,1.3-1.5,2.9-2,4.6c-0.4,1.7-0.6,3.5-0.6,5.3
	c0,1.7,0.2,3.4,0.6,5.1c0.4,1.7,1.1,3.1,2,4.5c0.9,1.3,2.1,2.4,3.5,3.2c1.4,0.8,3.2,1.2,5.2,1.2c2.8,0,5-0.9,6.6-2.6
	c1.6-1.7,2.5-4,2.9-6.8h8.9c-0.2,2.6-0.8,5-1.8,7c-1,2.1-2.3,3.9-3.8,5.4c-1.6,1.5-3.5,2.6-5.6,3.4c-2.1,0.8-4.5,1.2-7,1.2
	c-3.2,0-6.1-0.6-8.6-1.7c-2.5-1.1-4.7-2.6-6.4-4.6c-1.7-1.9-3.1-4.2-4-6.8c-0.9-2.6-1.4-5.4-1.4-8.5c0-3.1,0.5-6,1.4-8.7
	c0.9-2.7,2.3-5,4-7s3.9-3.5,6.4-4.7c2.5-1.1,5.4-1.7,8.6-1.7c2.3,0,4.5,0.3,6.5,1c2,0.7,3.9,1.6,5.5,2.9c1.6,1.3,2.9,2.8,4,4.7
	c1,1.9,1.7,4,2,6.4h-8.9C591.3,19.8,591,18.8,590.4,17.9z M649.7,6.8v7.7h-22v8.9h20.2v7.1h-20.2v10.2h22.4v7.7h-31.6V6.8H649.7z
	 M681.3,16.9c-1.9,1.9-4.2,2.8-6.9,2.8c-2.8,0-5.1-1-7-2.9s-2.9-4.2-2.9-7c0-2.9,1-5.3,3.1-7.2c1.9-1.8,4.2-2.7,6.8-2.7
	c2.7,0,5,1,7,2.9c1.9,1.9,2.9,4.3,2.9,7C684.2,12.7,683.2,15,681.3,16.9z M668.6,4.2c-1.6,1.6-2.4,3.5-2.4,5.7
	c0,2.3,0.8,4.2,2.4,5.8c1.6,1.6,3.5,2.4,5.8,2.4c2.2,0,4.2-0.8,5.7-2.4c1.6-1.6,2.4-3.6,2.4-5.8c0-2.2-0.8-4.1-2.4-5.7
	c-1.6-1.6-3.5-2.5-5.8-2.5C672.1,1.7,670.1,2.5,668.6,4.2z M670,15.4V4.4c0.7,0,1.7,0,3,0s2.1,0,2.3,0c0.9,0.1,1.6,0.2,2.2,0.6
	c1,0.5,1.5,1.4,1.5,2.6c0,0.9-0.3,1.6-0.8,2c-0.5,0.4-1.1,0.7-1.9,0.7c0.7,0.1,1.2,0.4,1.6,0.6c0.6,0.5,1,1.3,1,2.5v1
	c0,0.1,0,0.2,0,0.3c0,0.1,0,0.2,0.1,0.3l0.1,0.3h-2.7c-0.1-0.3-0.1-0.9-0.2-1.5c0-0.7-0.1-1.1-0.2-1.3c-0.1-0.4-0.4-0.7-0.8-0.8
	c-0.2-0.1-0.5-0.1-1-0.2l-0.6,0h-0.6v3.9H670z M675.2,6.6c-0.4-0.2-0.9-0.2-1.7-0.2h-0.7v3.2h1.1c0.7,0,1.2-0.1,1.6-0.4
	c0.4-0.3,0.6-0.7,0.6-1.3S675.8,6.8,675.2,6.6z"/>
</svg>
