<?xml version="1.0" encoding="UTF-8"?>
<svg width="24px" height="24px" viewBox="0 0 24 24" version="1.1" xmlns="http://www.w3.org/2000/svg" xmlns:xlink="http://www.w3.org/1999/xlink">
    <!-- Generator: Sketch 55.1 (78136) - https://sketchapp.com -->
    <title>Glyphs / Action / Search / 24x24</title>
    <desc>Created with Sketch.</desc>
    <g id="Glyphs-/-Action-/-Search-/-24x24" stroke="none" stroke-width="1" fill="#ff66" fill-rule="evenodd">s
        <path d="M22.53,21.47 L18.4,17.34 C21.8125954,13.357831 21.4681816,7.39065421 17.6200881,3.82755805 C13.7719947,0.264461892 7.79599043,0.379323064 4.08765675,4.08765675 C0.379323064,7.79599043 0.264461892,13.7719947 3.82755805,17.6200881 C7.39065421,21.4681816 13.357831,21.8125954 17.34,18.4 L21.47,22.53 L22.53,21.47 Z M2.74999996,11 C2.74999996,6.44365079 6.44365079,2.74999996 11,2.74999996 C15.5563492,2.74999996 19.25,6.44365079 19.25,11 C19.25,15.5563492 15.5563492,19.25 11,19.25 C6.44593509,19.24449 2.75551003,15.5540649 2.74999996,11 Z" id="Color" fill="#ff6600"></path>
    </g>
</svg>