<?xml version="1.0" encoding="UTF-8"?>
<svg width="16px" height="16px" viewBox="0 0 16 16" version="1.1" xmlns="http://www.w3.org/2000/svg" xmlns:xlink="http://www.w3.org/1999/xlink">
    <!-- Generator: Sketch 56.3 (81716) - https://sketch.com -->
    <title>Glyphs / Link / Attachment / 12x12</title>
    <desc>Created with Sketch.</desc>
    <g id="Design" stroke="none" stroke-width="1" fill="none" fill-rule="evenodd">
        <g id="0-0-0_Docs-Components_L" transform="translate(-568.000000, -1056.000000)" fill="#FF6600">
            <g id="Group-2-Copy" transform="translate(384.000000, 1045.000000)">
                <g id="Glyphs-/-Link-/-Attachment-/-16x16" transform="translate(184.000000, 11.000000)">
                    <path d="M4.99999998,15.0800255 C4.6037391,15.0823081 4.22266415,14.9277211 3.93999997,14.65 L1.34999996,12.06 C0.770542488,11.4721202 0.770542488,10.5278798 1.34999996,9.94000001 L6.43999999,4.84999998 C7.02787977,4.27054251 7.97212023,4.27054251 8.56,4.84999998 L10.85,7.14999999 L10.15,7.85 L7.85,5.55999998 C7.65557824,5.36942855 7.34442175,5.36942855 7.14999999,5.55999998 L2.05999996,10.65 C1.86942852,10.8444218 1.86942852,11.1555783 2.05999996,11.35 L4.64999998,13.94 C4.84442174,14.1305715 5.15557823,14.1305715 5.34999998,13.94 L7.14999999,12.15 L7.85,12.85 L6.05999999,14.65 C5.77733582,14.9277211 5.39626087,15.0823081 4.99999998,15.0800255 Z M8.5,11.5800255 C8.10373912,11.5823081 7.72266417,11.4277211 7.44,11.15 L5.14999998,8.85000001 L5.84999999,8.15 L8.14999998,10.44 C8.34442176,10.6305715 8.65557825,10.6305715 8.85000001,10.44 L13.94,5.34999998 C14.1305715,5.15557823 14.1305715,4.84442174 13.94,4.64999998 L11.35,2.05999996 C11.1555783,1.86942852 10.8444218,1.86942852 10.65,2.05999996 L8.85000001,3.84999997 L8.14999998,3.14999997 L9.94000001,1.34999996 C10.5278798,0.770542488 11.4721202,0.770542488 12.06,1.34999996 L14.65,3.93999997 C15.2294575,4.52787975 15.2294575,5.47212021 14.65,6.05999999 L9.56000001,11.15 C9.27733584,11.4277211 8.89626089,11.5823081 8.5,11.5800255 Z" id="Color"></path>
                </g>
            </g>
        </g>
    </g>
</svg>